<?xml version="1.0" ?><svg viewBox="0 0 32 32" xmlns="http://www.w3.org/2000/svg"><defs><style>.cls-1{fill:none;}</style></defs><title/><g data-name="Layer 2" id="Layer_2"><path d="M24,30H8a5,5,0,0,1-5-5,1,1,0,0,1,.06-.35A13.4,13.4,0,0,1,15.54,16h.92a13.4,13.4,0,0,1,12.48,8.65A1,1,0,0,1,29,25,5,5,0,0,1,24,30ZM5,25.17A3,3,0,0,0,8,28H24a3,3,0,0,0,3-2.83A11.39,11.39,0,0,0,16.46,18h-.92A11.39,11.39,0,0,0,5,25.17Z"/><path d="M16,15a6,6,0,1,1,6-6A6,6,0,0,1,16,15ZM16,5a4,4,0,1,0,4,4A4,4,0,0,0,16,5Z"/><path d="M24,30H8a5,5,0,0,1-5-5,1,1,0,0,1,.06-.35A13.4,13.4,0,0,1,15.54,16h.92a13.4,13.4,0,0,1,12.48,8.65A1,1,0,0,1,29,25,5,5,0,0,1,24,30ZM5,25.17A3,3,0,0,0,8,28H24a3,3,0,0,0,3-2.83A11.39,11.39,0,0,0,16.46,18h-.92A11.39,11.39,0,0,0,5,25.17Z"/></g><g id="frame"><rect class="cls-1" height="32" width="32"/></g></svg>